<svg width="71" height="34" viewBox="0 0 71 34" fill="none" xmlns="http://www.w3.org/2000/svg">
<path fill-rule="evenodd" clip-rule="evenodd" d="M30.4574 8.58823C25.481 8.58823 21.4702 12.5197 21.4702 17.3977V25.115C21.4702 29.9929 25.481 33.9244 30.4574 33.9244C35.4338 33.9244 39.4446 29.9929 39.4446 25.115V17.3977C39.3703 12.5925 35.3595 8.58823 30.4574 8.58823ZM30.4574 27.5904C29.4176 27.5904 28.6005 26.7895 28.6005 25.7703V16.6696C28.6005 15.6503 29.4176 14.8495 30.4574 14.8495C31.4972 14.8495 32.3143 15.6503 32.3143 16.6696V25.7703C32.3143 26.7895 31.423 27.5904 30.4574 27.5904ZM50.2144 7.42335H52.1455C54.0766 7.42335 55.7107 6.18566 55.7107 4.29273C55.7107 2.3998 54.1509 1.16211 52.1455 1.16211H50.2144C45.238 1.16211 41.2272 5.02078 41.2272 9.82592V30.4298C41.2272 32.3227 42.7869 33.9244 44.7924 33.9244C46.7235 33.9244 48.3575 32.3955 48.3575 30.4298V16.8152H50.8086C52.7397 16.8152 54.3737 15.5775 54.3737 13.6846C54.3737 11.7917 52.814 10.554 50.8086 10.554H48.3575V9.4619C48.3575 8.29701 49.026 7.42335 50.2144 7.42335Z" fill="#2A2A2A"/>
<path d="M59.4985 34.0005C61.6726 34.0005 63.4351 32.273 63.4351 30.1419C63.4351 28.0108 61.6726 26.2832 59.4985 26.2832C57.3245 26.2832 55.562 28.0108 55.562 30.1419C55.562 32.273 57.3245 34.0005 59.4985 34.0005Z" fill="#2A2A2A"/>
<path fill-rule="evenodd" clip-rule="evenodd" d="M64.9206 7.42612H66.8518C68.7829 7.42612 70.4169 6.18844 70.4169 4.2955C70.4169 2.40257 68.8572 1.16488 66.8518 1.16488H64.9206C59.9443 1.16488 55.9334 5.02356 55.9334 9.8287V21.6959C55.9334 23.5889 57.4932 25.1906 59.4986 25.1906C61.4297 25.1906 63.0638 23.6617 63.0638 21.6959V16.818H65.5148C67.446 16.818 69.08 15.5803 69.08 13.6874C69.08 11.7944 67.5202 10.5567 65.5148 10.5567H63.0638V9.46467C63.0638 8.29979 63.7322 7.42612 64.9206 7.42612ZM16.1967 0C14.2655 0 12.6315 1.52891 12.6315 3.49465V10.5567H7.80368V3.49465C7.80368 1.60171 6.24391 0 4.23851 0C2.2331 0 0.67334 1.52891 0.67334 3.49465V30.5054C0.67334 32.3983 2.2331 34 4.23851 34C6.24391 34 7.80368 32.4711 7.80368 30.5054V16.818H10.8489C11.8145 16.818 12.6315 17.6188 12.6315 18.5653V30.4325C12.6315 32.3255 14.1913 33.9272 16.1967 33.9272C18.1278 33.9272 19.7618 32.3983 19.7618 30.4325V3.49465C19.7618 1.52891 18.1278 0 16.1967 0Z" fill="#2A2A2A"/>
</svg>
