<svg width="124" height="29" viewBox="0 0 124 29" fill="none" xmlns="http://www.w3.org/2000/svg">
<path fill-rule="evenodd" clip-rule="evenodd" d="M7.91914 0C3.61914 0 0.119141 3.3 0.119141 7.4V20.9C0.119141 25 3.61914 28.3 7.91914 28.3L115.419 28.4C119.719 28.4 123.219 25.1 123.219 21V7.5C123.219 3.4 119.719 0.1 115.419 0.1L7.91914 0ZM1.41914 20.9V7.4C1.41914 4 4.31914 1.3 7.91914 1.3L115.419 1.4C119.019 1.4 121.919 4.1 121.919 7.5V21C121.919 24.4 119.019 27.1 115.419 27.1H7.91914C4.41914 27.1 1.41914 24.3 1.41914 20.9ZM12.0191 22.9H6.71914C6.31914 22.9 6.11914 22.8 5.91914 22.6C5.71914 22.4 5.61914 22.2 5.61914 22C5.61914 21.8 5.61914 21.6 5.71914 21.4L11.4191 7.3C11.5191 7.2 11.5191 7 11.5191 6.8C11.5191 6.6 11.4191 6.4 11.3191 6.2C11.1191 6 11.0191 6 10.8191 6L10.9191 5.4H17.7191C18.0191 5.4 18.2191 5.5 18.4191 5.6C18.6191 5.7 18.7191 6 18.7191 6.3L18.9191 12.4L21.1191 7.2C21.2191 7.1 21.2191 6.9 21.2191 6.7C21.2191 6.3 21.0191 6.1 20.6191 6.1L20.7191 5.5H27.6191C27.9191 5.5 28.1191 5.6 28.3191 5.9C28.5191 6.2 28.6191 6.4 28.6191 6.8L29.4191 21.6C29.4191 21.8 29.5191 22 29.8191 22.2C30.0191 22.3 30.3191 22.4 30.5191 22.4L30.4191 23H23.5191C23.3191 23 23.1191 22.9 22.9191 22.7C22.7191 22.5 22.6191 22.3 22.6191 22V15.3L19.7191 23H13.7191L13.5191 15.4L11.1191 21.3C11.1191 21.4 11.1191 21.5 11.1191 21.7C11.1191 21.9 11.2191 22.1 11.4191 22.2C11.6191 22.3 11.8191 22.4 12.0191 22.4V22.9ZM48.8191 22.9H42.3191C41.9191 22.9 41.5191 22.8 41.3191 22.7C41.1191 22.6 41.0191 22.3 40.9191 22L40.7191 19.4H37.8191L36.8191 21.5C36.8191 21.6 36.8191 21.6 36.8191 21.6C36.8191 21.6 36.8191 21.7 36.8191 21.8C36.8191 22 36.9191 22.1 37.0191 22.2C37.1191 22.3 37.3191 22.4 37.5191 22.4L37.4191 23H31.9191C31.2191 23 30.8191 22.7 30.8191 22.2C30.8191 22 30.8191 21.9 30.9191 21.7L38.3191 7.3C38.4191 7.2 38.4191 7.1 38.4191 6.9C38.4191 6.7 38.3191 6.5 38.2191 6.4C38.0191 6.2 37.9191 6.2 37.7191 6.2L37.8191 5.6H45.3191C45.7191 5.6 46.0191 5.7 46.3191 5.9C46.6191 6.1 46.7191 6.4 46.7191 6.8L47.9191 21.5C47.9191 21.7 48.0191 21.9 48.2191 22.1C48.4191 22.3 48.7191 22.4 48.9191 22.4L48.8191 22.9ZM40.5191 13.2L39.3191 16H40.7191L40.5191 13.2ZM59.3191 9.5L56.7191 21C56.7191 21.2 56.6191 21.4 56.6191 21.6C56.6191 21.8 56.7191 22 56.9191 22.1C57.1191 22.3 57.3191 22.3 57.5191 22.3L57.4191 22.9H50.3191C50.0191 22.9 49.8191 22.8 49.7191 22.7C49.6191 22.5 49.5191 22.3 49.5191 22.1C49.5191 22 49.5191 21.9 49.5191 21.7L52.9191 7C52.9191 6.8 52.9191 6.6 52.7191 6.5C52.5191 6.3 52.3191 6.3 52.1191 6.3L52.2191 5.7H65.0191L64.4191 8.5C64.3191 8.7 64.1191 9 63.8191 9.2C63.5191 9.4 63.2191 9.5 62.8191 9.5H59.3191ZM73.0191 15.3H71.2191L69.8191 21.5V21.7C69.8191 21.9 69.9191 22 70.1191 22.2C70.3191 22.3 70.4191 22.4 70.6191 22.4L70.5191 23H63.5191C62.9191 23 62.7191 22.7 62.7191 22.2C62.7191 22.1 62.7191 22 62.8191 21.8L66.1191 6.9C66.1191 6.7 66.1191 6.6 65.9191 6.4C65.7191 6.2 65.5191 6.1 65.3191 6.1L65.5191 5.5H72.5191C73.0191 5.5 73.3191 5.8 73.3191 6.3C73.3191 6.4 73.3191 6.5 73.3191 6.7L72.0191 11.9H73.8191L75.0191 6.9C75.0191 6.7 75.0191 6.6 74.8191 6.4C74.6191 6.2 74.5191 6.1 74.3191 6.1L74.4191 5.5H81.4191C81.7191 5.5 81.9191 5.6 82.0191 5.7C82.1191 5.9 82.1191 6.1 82.1191 6.4V6.7L78.7191 21.5C78.7191 21.7 78.7191 21.8 78.9191 22C79.1191 22.2 79.3191 22.3 79.5191 22.3L79.3191 22.9H72.3191C71.8191 22.9 71.5191 22.6 71.5191 22.1C71.5191 22 71.5191 21.9 71.5191 21.7L73.0191 15.3ZM93.6191 15.3L90.1191 20.6C89.9191 20.9 89.8191 21 89.7191 21.1C89.6191 21.3 89.6191 21.4 89.6191 21.6C89.6191 21.8 89.7191 21.9 89.9191 22.1C90.1191 22.2 90.2191 22.3 90.4191 22.3L90.3191 22.9H83.3191C82.7191 22.9 82.5191 22.6 82.5191 22.1C82.5191 22 82.5191 21.9 82.5191 21.7L85.9191 6.9C85.9191 6.7 85.9191 6.6 85.7191 6.4C85.5191 6.2 85.3191 6.1 85.1191 6.1L85.3191 5.5H92.3191C92.8191 5.5 93.1191 5.8 93.1191 6.3C93.1191 6.4 93.1191 6.5 93.1191 6.7L91.5191 13.2L94.8191 8.2C95.0191 8 95.1191 7.8 95.2191 7.6C95.3191 7.4 95.4191 7.2 95.5191 6.9C95.5191 6.7 95.5191 6.6 95.3191 6.4C95.1191 6.2 95.0191 6.1 94.8191 6.1L94.9191 5.5H101.919C102.219 5.5 102.419 5.6 102.519 5.7C102.619 5.8 102.719 6 102.719 6.3L102.619 6.7L99.2191 21.5C99.2191 21.7 99.2191 21.8 99.4191 22C99.6191 22.2 99.8191 22.3 100.019 22.3L99.8191 22.9H92.8191C92.3191 22.9 92.0191 22.6 92.0191 22.1C92.0191 22 92.0191 21.9 92.0191 21.7L93.6191 15.3ZM105.719 5.5H116.019C116.319 5.5 116.519 5.4 116.819 5.3C117.119 5.2 117.219 5 117.319 4.8H117.919L116.919 8.7C116.719 9.2 116.219 9.5 115.419 9.5H113.919L111.119 21.5C111.119 21.7 111.119 21.8 111.319 22C111.519 22.2 111.719 22.3 111.919 22.3L111.719 22.9H104.719C104.219 22.9 103.919 22.6 103.919 22.1C103.919 22 103.919 21.9 104.019 21.7L106.819 9.5H105.119C104.819 9.5 104.619 9.6 104.419 9.7C104.219 9.8 104.119 10 104.019 10.2H103.419L104.419 6.2C104.519 6 104.619 5.8 104.819 5.7C105.019 5.6 105.319 5.5 105.719 5.5Z" fill="#2B2B2B"/>
</svg>
