<svg width="114" height="31" viewBox="0 0 114 31" fill="none" xmlns="http://www.w3.org/2000/svg">
<path d="M0.21875 30.6325H107.983L113.119 15.3162L107.983 0H0.21875V30.6325Z" fill="#2B2B2B"/>
<path d="M86.797 7.6123H75.0576V11.4643H79.0013V22.9286H82.8533V11.4643H86.797V7.6123Z" fill="white"/>
<path d="M69.6459 13.0234H64.2348V7.6123H60.3828V13.0234H59.2822V16.8754H60.3828V22.9286H64.2348V16.8754H69.6459V22.9286H73.4979V7.6123H69.6459V13.0234Z" fill="white"/>
<path d="M50.5698 16.8754H57.7235V13.0234H50.478V11.4643H57.9069L57.9986 7.6123H46.7178V22.9286H58.182V19.1683H50.5698V16.8754Z" fill="white"/>
<path d="M29.8428 22.9286H33.8782L37.7302 11.4643H40.8485V22.9286H44.8839V7.6123H34.9788L29.8428 22.9286Z" fill="white"/>
<path d="M95.0511 7.6123H90.282L87.9891 14.6743H85.4211V18.5263H86.7051L85.146 22.9286H88.998L90.5571 18.4346H94.9594L96.5185 22.9286H100.371L95.0511 7.6123ZM91.8411 14.6743L92.7583 12.0146L93.6754 14.6743H91.8411Z" fill="white"/>
<path d="M27.5496 9.81346C27.3662 9.81346 29.1088 8.98804 29.1088 8.62118C29.1088 7.79575 27.3662 7.15376 25.6236 7.24547C25.4402 7.24547 25.6236 6.42004 25.1651 5.59462C24.8899 5.13605 24.7982 4.95262 22.9639 5.68633C22.7805 4.95262 21.8633 2.75148 20.2125 4.86091C19.9374 4.49405 19.7539 4.03548 19.2036 3.85205C19.0202 3.94376 18.7451 4.31062 18.3782 4.86091C18.0114 4.67748 17.1859 4.12719 16.4522 4.21891C16.3605 4.31062 16.2688 4.76919 16.2688 5.41119C16.0854 5.41119 15.1682 5.13605 14.3428 5.31948C14.3428 5.41119 14.6179 6.23662 14.8931 6.60347C14.3428 6.60347 13.3339 6.87861 13.1505 7.15376C13.1505 7.33719 13.1505 7.70404 14.3428 8.7129C13.7008 8.89632 13.0588 9.44661 13.0588 9.63004C12.9671 10.3637 14.4345 11.2809 14.8931 11.4643C14.5262 12.198 14.2511 13.1152 14.4345 13.482C15.2599 14.124 16.0854 14.2157 16.7274 14.124C16.6356 14.3075 16.6356 14.4909 16.6356 14.5826V14.6743C16.6356 14.8577 16.5439 15.1329 16.4522 15.2246C16.3605 15.408 16.3605 15.4997 16.3605 15.4997C16.3605 15.8666 17.1859 16.1417 17.8279 16.1417C17.9196 16.1417 18.2865 16.1417 18.4699 16.1417C19.2036 16.05 19.6622 15.8666 20.0291 15.6832C20.1208 15.5915 20.2125 15.4997 20.3042 15.4997C20.5794 15.9583 21.2214 16.8754 22.8722 17.5174C23.1473 17.334 23.6976 16.3252 23.6976 16.2334C23.8811 16.5086 25.1651 17.334 26.1739 17.1506C26.6325 16.7837 26.5408 15.1329 26.5408 15.1329C26.5408 15.1329 27.5496 15.4997 28.1916 15.408C28.375 15.408 28.7419 15.408 28.8336 15.0412C28.9253 14.9495 28.9253 14.3992 28.8336 13.9406C28.6502 13.3903 28.0082 12.7483 28.0082 12.7483C28.0082 12.7483 29.2005 12.5649 29.8425 11.8312C29.9342 11.1892 28.5585 10.1803 27.5496 9.81346ZM25.0733 12.4732L24.4313 12.6566L24.3396 13.2069H23.6059L23.3308 13.6655L22.5971 13.482L22.1385 13.7572L21.4048 13.3903L20.7628 13.482L20.2125 12.84H19.4788L19.1119 12.2897L18.3782 12.1063L18.1948 11.556L17.5528 11.1892L17.6445 10.6389L17.0025 10.0886L17.2776 9.63004L16.9108 9.07975L17.3694 8.80461L17.2776 8.25433L17.9196 8.0709L18.0114 7.52061H18.7451L19.0202 7.06204L19.7539 7.33719L20.2125 7.06204L20.8545 7.4289L21.5882 7.33719L22.1385 7.79576L22.8722 7.88747L23.2391 8.43775L23.9728 8.7129L24.1562 9.26318L24.7982 9.63004V10.0886L25.3485 10.5472L25.0733 11.0057L25.4402 11.556L24.8899 11.9229L25.0733 12.4732Z" fill="white"/>
<path d="M25.5317 20.8193C23.3305 18.9851 21.588 20.3608 21.1294 20.5442C20.3957 21.0028 19.9371 21.4613 19.5702 21.8282C19.7537 20.8193 20.1205 19.3519 20.2122 18.8016C20.304 18.0679 20.6708 16.0502 20.2122 15.7751C20.1205 15.7751 20.1205 15.6834 20.0288 16.1419C20.0288 16.1419 19.9371 16.9673 19.2951 18.9851C19.02 19.9022 18.8365 20.3608 18.7448 20.8193C18.5614 20.0856 17.9194 19.0768 16.5437 18.1596C16.0851 17.8845 14.3425 16.4171 12.1414 18.4348C11.958 18.6182 11.7745 18.9851 12.2331 19.2602C12.6917 19.5353 12.8751 19.7188 12.9668 20.0856C13.0585 20.4525 13.6088 21.7365 15.4431 21.8282C17.2774 22.0116 17.6442 22.195 17.9194 22.4702C17.9194 22.4702 18.1028 22.6536 18.2862 22.7453V22.837C18.2862 22.837 18.0111 25.1299 18.6531 26.047C19.2951 27.0559 20.0288 26.7808 20.0288 26.7808C20.0288 26.7808 19.4785 26.047 19.2951 24.763C19.4785 24.6713 19.662 24.4879 19.662 24.4879C20.0288 24.2128 20.304 24.0293 22.1382 23.8459C23.8808 23.7542 24.4311 22.5619 24.6145 22.195C24.7062 21.8282 24.8897 21.7365 25.3482 21.4613C25.8985 21.2779 25.7151 21.0028 25.5317 20.8193ZM12.7834 18.7099C15.6265 18.1596 17.2774 19.9022 17.9194 21.0945C15.5348 18.6182 12.7834 18.7099 12.7834 18.7099ZM19.662 23.2039C20.304 22.1033 21.6797 20.6359 24.7979 21.0945C24.7979 21.0945 21.1294 21.553 19.662 23.2039Z" fill="white"/>
</svg>
