<svg width="119" height="34" viewBox="0 0 119 34" fill="none" xmlns="http://www.w3.org/2000/svg">
<path d="M37.9341 0.535522H41.2754L45.0859 12.5215L48.8715 0.535522H52.2341L46.9769 16.1294H43.1664L37.9341 0.535522Z" fill="black"/>
<path d="M64.0213 10.5627C64.0213 13.8827 61.5722 16.4455 58.5864 16.4455C56.9584 16.4455 55.7782 15.8448 54.9785 14.8175V20.5866H52.1064V4.99273H54.9785V6.30793C55.7818 5.28423 56.9619 4.67993 58.5864 4.67993C61.5722 4.67993 64.0213 7.24273 64.0213 10.5627ZM61.1456 10.5627C61.1456 8.69303 59.8305 7.42043 58.0496 7.42043C56.2901 7.42043 54.9749 8.68943 54.9749 10.5627C54.9749 12.4324 56.2901 13.7049 58.0496 13.7049C59.834 13.7014 61.1456 12.4324 61.1456 10.5627Z" fill="black"/>
<path d="M71.7064 4.7688V7.975C70.2135 7.7973 68.3189 8.4655 68.3189 10.8044V16.1292H65.4468V4.9892H68.3189V6.9051C68.8983 5.3908 70.3023 4.7688 71.7064 4.7688Z" fill="black"/>
<path d="M71.7744 10.5627C71.7744 7.24273 74.3799 4.67993 77.6572 4.67993C80.931 4.67993 83.5613 7.24273 83.5613 10.5627C83.5613 13.8827 80.931 16.4455 77.6572 16.4455C74.3799 16.4419 71.7744 13.8791 71.7744 10.5627ZM80.6857 10.5627C80.6857 8.75703 79.3705 7.48803 77.6572 7.48803C75.9652 7.48803 74.65 8.75703 74.65 10.5627C74.65 12.3684 75.9652 13.6374 77.6572 13.6374C79.3705 13.6338 80.6857 12.3649 80.6857 10.5627Z" fill="black"/>
<path d="M91.9107 16.1293L87.855 11.0712V16.1293H84.9829V0.5354H87.855V9.8911L91.6868 4.9893H95.1169L90.6382 10.4918L95.2485 16.1293H91.9107Z" fill="black"/>
<path d="M95.853 14.5262C95.853 13.4776 96.699 12.6316 97.7476 12.6316C98.7962 12.6316 99.6422 13.4776 99.6422 14.5262C99.6422 15.5748 98.7962 16.4208 97.7476 16.4208C96.699 16.4208 95.853 15.5748 95.853 14.5262Z" fill="black"/>
<path d="M107.703 4.7688V7.975C106.21 7.7973 104.316 8.4655 104.316 10.8044V16.1292H101.44V4.9892H104.316V6.9051C104.899 5.3908 106.299 4.7688 107.703 4.7688Z" fill="black"/>
<path d="M119 4.99292V16.1329H116.128V14.8853C115.46 15.8877 114.301 16.4457 112.808 16.4457C110.448 16.4457 108.596 14.7964 108.596 11.8355V4.99652H111.468V11.48C111.468 12.9942 112.381 13.7763 113.675 13.7763C115.079 13.7763 116.124 12.9516 116.124 11.0143V5.00002H119V4.99292Z" fill="black"/>
<path d="M46.9954 31.0263H45.2252V23.7323H42.0545V31.0263H40.2808V22.0368H46.9954V31.0263Z" fill="black"/>
<path d="M51.6694 29.7041C52.3128 29.7041 52.8247 29.4339 53.109 29.0607L54.4455 29.832C53.8413 30.7065 52.878 31.2076 51.6445 31.2076C49.4869 31.2076 48.1255 29.729 48.1255 27.8166C48.1255 25.9042 49.5011 24.4255 51.5166 24.4255C53.4183 24.4255 54.7655 25.9291 54.7655 27.8166C54.7655 28.0619 54.7406 28.2787 54.7015 28.4955H49.8602C50.0912 29.3451 50.795 29.7041 51.6694 29.7041ZM53.109 27.2123C52.9029 26.2881 52.2097 25.9149 51.5166 25.9149C50.6315 25.9149 50.0272 26.3912 49.8353 27.2123H53.109Z" fill="black"/>
<path d="M62.6638 27.8166C62.6638 29.729 61.2526 31.2076 59.5322 31.2076C58.5938 31.2076 57.9149 30.8593 57.4528 30.2692V33.5963H55.7964V24.6068H57.4528V25.364C57.9149 24.7739 58.5938 24.4255 59.5322 24.4255C61.2491 24.4291 62.6638 25.9042 62.6638 27.8166ZM61.0074 27.8166C61.0074 26.7396 60.2502 26.0073 59.223 26.0073C58.2099 26.0073 57.4492 26.7396 57.4492 27.8166C57.4492 28.8936 58.2064 29.6259 59.223 29.6259C60.2502 29.6294 61.0074 28.8972 61.0074 27.8166Z" fill="black"/>
<path d="M66.9146 29.7041C67.5579 29.7041 68.0698 29.4339 68.3541 29.0607L69.6907 29.832C69.0864 30.7065 68.1231 31.2076 66.8897 31.2076C64.732 31.2076 63.3706 29.729 63.3706 27.8166C63.3706 25.9042 64.7463 24.4255 66.7617 24.4255C68.6634 24.4255 70.0106 25.9291 70.0106 27.8166C70.0106 28.0619 69.9857 28.2787 69.9466 28.4955H65.1053C65.3328 29.3451 66.0401 29.7041 66.9146 29.7041ZM68.3506 27.2123C68.1444 26.2881 67.4513 25.9149 66.7582 25.9149C65.8731 25.9149 65.2688 26.3912 65.0768 27.2123H68.3506Z" fill="black"/>
<path d="M75.0298 31.0266L72.6945 28.1119V31.0266H71.0381V24.6071H72.6945V27.4329L74.9019 24.6071H76.8782L74.2976 27.7777L76.9564 31.0266H75.0298Z" fill="black"/>
<path d="M84.5207 27.8166C84.5207 29.729 83.1095 31.2076 81.3891 31.2076C80.4507 31.2076 79.7718 30.8593 79.3097 30.2692V33.5963H77.6533V24.6068H79.3097V25.364C79.7718 24.7739 80.4507 24.4255 81.3891 24.4255C83.106 24.4291 84.5207 25.9042 84.5207 27.8166ZM82.8643 27.8166C82.8643 26.7396 82.1071 26.0073 81.0799 26.0073C80.0668 26.0073 79.3097 26.7396 79.3097 27.8166C79.3097 28.8936 80.0668 29.6259 81.0799 29.6259C82.1071 29.6294 82.8643 28.8972 82.8643 27.8166Z" fill="black"/>
<path d="M88.772 29.7044C89.4153 29.7044 89.9272 29.4342 90.2115 29.061L91.5481 29.8323C90.9438 30.7067 89.9805 31.2079 88.7471 31.2079C86.5894 31.2079 85.228 29.7292 85.228 27.8169C85.228 25.9045 86.6037 24.4258 88.6191 24.4258C90.5208 24.4258 91.868 25.9294 91.868 27.8169C91.868 28.0622 91.8431 28.279 91.804 28.4958H86.9627C87.1937 29.3454 87.8975 29.7044 88.772 29.7044ZM86.4473 23.068C86.4473 22.5917 86.8454 22.1936 87.3217 22.1936C87.798 22.1936 88.1819 22.5917 88.1819 23.068C88.1819 23.5443 87.798 23.9282 87.3217 23.9282C86.8454 23.9282 86.4473 23.5407 86.4473 23.068ZM90.2115 27.2126C90.0054 26.2884 89.3123 25.9152 88.6191 25.9152C87.734 25.9152 87.1297 26.3915 86.9378 27.2126H90.2115ZM88.8857 23.068C88.8857 22.5917 89.2838 22.1936 89.7601 22.1936C90.2364 22.1936 90.6203 22.5917 90.6203 23.068C90.6203 23.5443 90.2364 23.9282 89.7601 23.9282C89.2838 23.9282 88.8857 23.5407 88.8857 23.068Z" fill="black"/>
<path d="M92.5083 27.8166C92.5083 25.9042 93.9479 24.4255 95.8994 24.4255C97.1577 24.4255 98.2489 25.0938 98.775 26.082L97.3496 26.9173C97.0937 26.3912 96.5392 26.0571 95.8852 26.0571C94.897 26.0571 94.1647 26.7893 94.1647 27.8166C94.1647 28.8297 94.897 29.5619 95.8852 29.5619C96.5534 29.5619 97.1044 29.242 97.3603 28.7159L98.7999 29.537C98.2489 30.5394 97.1577 31.2076 95.8994 31.2076C93.9479 31.2076 92.5083 29.729 92.5083 27.8166Z" fill="black"/>
<path d="M104.913 26.1995H102.908V31.0266H101.252V26.1995H99.2222V24.6071H104.909V26.1995H104.913Z" fill="black"/>
<path d="M105.08 27.8166C105.08 25.9042 106.584 24.4255 108.471 24.4255C110.359 24.4255 111.873 25.9007 111.873 27.8166C111.873 29.729 110.359 31.2076 108.471 31.2076C106.584 31.2076 105.08 29.729 105.08 27.8166ZM110.217 27.8166C110.217 26.7751 109.459 26.0464 108.471 26.0464C107.497 26.0464 106.737 26.7787 106.737 27.8166C106.737 28.8545 107.494 29.5903 108.471 29.5903C109.459 29.5903 110.217 28.8581 110.217 27.8166Z" fill="black"/>
<path d="M116.906 31.0266L114.567 28.1119V31.0266H112.911V24.6071H114.567V27.4329L116.775 24.6071H118.751L116.17 27.7777L118.829 31.0266H116.906Z" fill="black"/>
<path d="M24.1872 0.403809H6.16024C2.77123 0.403809 0 3.17501 0 6.56401V24.591C0 27.98 2.77123 30.7513 6.16024 30.7513H24.1872C27.5762 30.7513 30.3475 27.98 30.3475 24.591V6.56401C30.3475 3.17851 27.5762 0.403809 24.1872 0.403809Z" fill="black"/>
<path d="M15.3218 10.9757L10.7217 15.5793L15.3218 20.1829C17.8627 22.7238 21.9812 22.7238 24.5186 20.1829C27.0595 17.6421 27.0595 13.5201 24.5186 10.9792C21.9777 8.43492 17.8592 8.43492 15.3218 10.9757Z" fill="white"/>
<path d="M6.99821 15.5791L2.3981 10.9755C2.05955 10.6369 1.69307 10.3507 1.30566 10.1064V21.0517C1.69307 20.8074 2.05955 20.5177 2.3981 20.1792L6.99821 15.5791Z" fill="white"/>
<path d="M13.4583 22.0463L8.86166 17.4427L4.26155 22.0463C2.72236 23.5855 2.12902 25.7216 2.45361 27.718C3.34362 28.772 4.67689 29.4456 6.16372 29.4456H14.7357C15.884 27.0269 15.4582 24.0462 13.4583 22.0463Z" fill="white"/>
<path d="M4.26128 9.11193L8.85791 13.7155L13.4581 9.11193C15.458 7.11203 15.8768 4.12793 14.7285 1.70923H6.15996C4.67313 1.70923 3.33986 2.38283 2.44985 3.44033C2.12875 5.43323 2.72558 7.57623 4.26128 9.11193Z" fill="white"/>
</svg>
