<svg width="115" height="21" viewBox="0 0 115 21" fill="none" xmlns="http://www.w3.org/2000/svg">
<path d="M108.15 15.929C108.12 16.1651 108.031 16.7862 107.227 16.8669H100.161C99.3569 16.7862 99.21 16.1651 99.1799 15.929V4.95999C99.2097 4.72334 99.3212 4.22032 100.126 4.13965H107.23C108.035 4.22032 108.12 4.72334 108.15 4.95999V15.929ZM110.596 0.00679239H96.7335C94.6506 0.175786 92.891 1.23816 92.6563 3.61483V17.1952C92.891 19.5719 94.6506 20.831 96.7335 21H110.596C112.679 20.831 114.438 19.5719 114.673 17.1952V3.61483C114.438 1.23816 112.679 0.175786 110.596 0.00679239ZM54.493 4.13965H48.2954V0.00679239H67.2142V4.13965H61.0166V21H54.493V4.13965ZM46.3385 4.13965V0.00679239H29.3769V21L46.564 20.9955L46.5702 16.8672H35.917L35.9181 12.3708H46.3385V8.24817H35.9181V4.13965H46.3385L46.3385 4.13965ZM84.1756 7.39357C84.1756 7.8479 84.0633 8.24646 83.2523 8.24646H75.6949V4.12578H83.2622C84.1826 4.12578 84.1756 4.73155 84.1756 5.10974V7.39357ZM85.9827 12.839C88.0178 12.6751 90.0467 11.2821 90.0467 8.99434V3.81157C89.8105 1.44593 88.0457 0.168428 85.9534 0H69.171L69.1716 21H75.6949V12.839H78.2912L82.5314 21H90.0337L84.9842 12.839H85.9827H85.9827ZM15.8732 21L20.244 7.81365V21H26.7676V0.00679239H17.9609L13.7205 10.5037L9.48002 0.00679239H0.67334V21H7.19696V7.81365L11.6 21H15.8732Z" fill="#2A2A2A"/>
</svg>
