<svg width="96" height="27" viewBox="0 0 96 27" fill="none" xmlns="http://www.w3.org/2000/svg">
<path fill-rule="evenodd" clip-rule="evenodd" d="M27.6743 7.5159C28.1075 7.35168 28.6663 6.99601 28.8402 6.8519C28.5515 6.70738 28.3295 6.54316 28.0308 6.25452C27.761 5.98348 27.1243 4.72168 24.6576 4.72168C21.9987 4.72168 20.8706 6.56201 20.8706 8.01818C20.8706 8.18073 20.8614 8.40276 20.91 8.61473C17.4693 10.2443 14.3773 12.0834 10.9463 16.2752H19.7043C19.2045 16.4683 18.4425 16.767 17.8451 17.2781L18.5581 19.8017C19.8685 19.725 21.1123 19.3584 21.9309 18.9927C22.6916 18.645 25.9974 17.1235 27.27 12.9518C27.3852 12.5275 27.9056 10.3491 27.9722 10.0219C28.0312 9.70393 28.2331 8.93311 28.8695 8.48947C28.6952 8.33573 28.2042 7.95032 27.6747 7.70944C27.4908 7.64241 27.4908 7.58334 27.6743 7.5159Z" fill="#2B2B2B"/>
<path fill-rule="evenodd" clip-rule="evenodd" d="M22.0364 0H9.54833L5.43408 12.0361H11.9094C12.1218 11.8706 12.42 11.6209 12.8155 11.3608L15.6579 2.16793L17.6046 8.51754C17.8547 8.38307 18.4999 8.05505 18.7998 7.91094C18.9531 5.40536 20.8324 3.99904 23.2991 3.70998L22.0364 0Z" fill="#2B2B2B"/>
<path fill-rule="evenodd" clip-rule="evenodd" d="M3.8057 16.8246L0.673828 25.9107H8.24838L10.4829 18.7517H5.38587C5.56936 18.1535 5.95393 17.316 6.33013 16.8242H3.8057V16.8246Z" fill="#2B2B2B"/>
<path fill-rule="evenodd" clip-rule="evenodd" d="M19.9365 19.6177L21.8439 25.9103H23.8095L21.7274 19.0693C21.2653 19.2708 20.572 19.4841 19.9365 19.6177Z" fill="#2B2B2B"/>
<path fill-rule="evenodd" clip-rule="evenodd" d="M27.1431 14.7622C26.4502 16.1011 25.1494 18.0382 22.4126 19.388L24.3484 25.9106H30.9503L27.1431 14.7622Z" fill="#2B2B2B"/>
<path fill-rule="evenodd" clip-rule="evenodd" d="M31.9899 7.44853C31.5178 7.26504 30.6603 6.96635 29.6104 6.96635C29.3109 6.96635 29.013 6.92864 28.8396 6.85156C28.6653 6.99567 28.1065 7.35176 27.6737 7.51556C27.4903 7.58342 27.4903 7.64207 27.6737 7.70868C28.2033 7.94956 28.6942 8.33497 28.8685 8.48871C29.6481 7.92107 30.2945 8.41163 31.9899 7.64207C32.173 7.57379 32.1633 7.51597 31.9899 7.44853Z" fill="#2B2B2B"/>
<path fill-rule="evenodd" clip-rule="evenodd" d="M3.08335 14.3195L3.15038 14.3861L3.08335 14.4527C1.90744 14.4527 1.12656 15.2817 1.021 16.2356H7.52394C7.05265 16.6885 6.49339 17.4316 6.17543 18.2025H16.1295L18.413 25.9102H20.4079L18.5575 19.8011L17.8445 17.2775C18.4419 16.7664 19.2039 16.4677 19.7037 16.2746H10.9461C14.3771 12.0828 17.4692 10.2438 20.9098 8.61415C20.8612 8.40218 20.8704 8.18015 20.8704 8.0176C20.8704 6.56143 21.9986 4.7211 24.6575 4.7211C25.5347 4.7211 26.5079 4.89411 27.2301 5.42489C26.8057 5.02984 25.4287 4.23012 23.9357 4.23934C20.9772 4.25903 19.1947 6.15759 19.3489 8.2765C17.4608 9.13487 14.1844 10.8876 12.1028 12.5847H1.03105C1.17516 13.5956 1.9464 14.3195 3.08335 14.3195Z" fill="#2B2B2B"/>
<path fill-rule="evenodd" clip-rule="evenodd" d="M58.2284 9.46191H52.534L52.5239 16.6314C52.5239 19.4641 51.5801 21.2567 49.6049 21.2567C48.1114 21.2567 47.3594 20.2739 47.3594 17.5279V9.46191H47.2828H42.2724H41.8963V16.6314C41.8963 19.4641 40.9424 21.2567 38.9671 21.2567C37.4636 21.2567 36.7217 20.2739 36.7217 17.5279L36.7129 9.46191H30.4974L30.4873 19.2429C30.4873 24.389 33.2338 25.9491 36.7125 26.1996C39.1892 26.3831 41.3462 24.8804 42.3102 23.8192C43.4375 25.4195 45.259 26.045 47.359 26.1996C49.8261 26.3831 51.9839 24.8804 52.9483 23.8192L52.9386 25.9105H53.2273H58.3147L58.2196 25.8816L58.2284 9.46191Z" fill="#2B2B2B"/>
<path fill-rule="evenodd" clip-rule="evenodd" d="M75.9102 17.6239C75.9102 17.546 75.9391 14.1745 75.4958 13.2202C75.0526 12.2663 74.1377 10.0112 70.2061 9.23033C69.4064 9.06611 68.5865 9.0083 67.7969 9.0083C64.7237 9.01919 61.978 10.0401 61.485 10.4054V14.4627C61.485 14.4627 64.1933 12.9889 66.2846 12.9889C66.7563 12.9889 67.287 12.9977 67.7969 13.0752C69.0021 13.2486 70.1282 13.7882 70.2149 15.417C70.2149 15.417 69.3871 15.3881 68.1911 15.3881H67.7969C64.0295 15.4367 59.5391 16.2842 59.462 20.7934C59.3945 24.4465 62.6131 26.1414 65.4367 26.0643C65.4367 26.0643 66.515 26.1221 67.7969 25.7078C68.7411 25.4083 69.7918 24.8503 70.6011 23.8386C70.6011 25.3036 70.7264 25.9098 70.7264 25.9098H76.0647C76.0647 25.9106 75.9102 23.0963 75.9102 17.6239ZM67.7969 22.1721C66.6025 22.4117 65.4078 21.8919 65.3399 20.6393C65.272 19.3968 66.5351 18.9146 67.7969 18.7604C68.8865 18.6268 69.9937 18.7424 70.2547 18.8383C70.2639 20.8236 69.0306 21.9212 67.7969 22.1721Z" fill="#2B2B2B"/>
<path fill-rule="evenodd" clip-rule="evenodd" d="M89.6323 9.46191V16.1982H84.0807L84.1004 9.46191H78.0503L78.0696 25.9109H84.0627L84.0807 19.8889H89.6323L89.6411 25.9109H95.635L95.674 9.46191H89.6323Z" fill="#2B2B2B"/>
<path fill-rule="evenodd" clip-rule="evenodd" d="M24.9277 6.18652C24.1858 6.18652 23.5884 6.78307 23.5884 7.51619C23.5884 8.24846 24.1858 8.84668 24.9277 8.84668C25.6595 8.84668 26.2573 8.24804 26.2573 7.51619C26.2573 6.78307 25.6595 6.18652 24.9277 6.18652Z" fill="white"/>
</svg>
