<svg width="704" height="663" viewBox="0 0 704 663" xmlns="http://www.w3.org/2000/svg" fill="none"><path d="M655.53 9.3c-20.931-10.475-44.791-12.151-66.977-4.776-5.191 1.76-10.047 3.938-14.735 6.536-1.005-.587-1.925-1.173-3.014-1.676-20.93-10.475-44.79-12.234-66.976-4.776-22.27 7.374-40.27 23.044-50.735 43.993l-100.13 199.185-102.056-199.185c-10.465-20.949-28.549-36.619-50.735-43.993-22.269-7.374-46.046-5.698-66.976 4.776-1.089.503-2.01 1.173-3.014 1.76-24.447-13.491-54.921-15.167-81.712-1.76-43.284 21.703-60.865 74.579-39.181 117.902l229.311 454.431c3.014 7.458 6.447 14.748 10.8 21.62 23.358 37.373 62.54 59.663 104.735 59.663 42.697 0 82.046-22.625 105.404-60.585 3.517-5.782 6.53-11.732 9.126-17.765.251-.419.586-.754.837-1.257l225.209-456.107c21.684-43.407 4.102-96.283-39.181-117.986zm-376.744 440.604l30.223-62.512 26.372 52.205-30.809 63.686-25.786-53.379zm-148.772-407.672c5.359 4.944 9.963 10.894 13.396 17.765l151.199 298.82-29.972 61.926-148.018-304.937c-12.642-25.307-6.363-55.222 13.395-73.574zm222.195 255.916l31.061 61.423-29.637 59.58-30.642-60.585 29.218-60.418zm28.717 250.721c-1.089 2.346-2.512 4.357-4.103 6.201l-.837 1.089c-5.526 6.117-13.312 9.637-22.019 9.72-3.683.084-7.116-.586-10.465-1.759-1.004-.419-2.009-.755-2.93-1.257-.502-.252-1.005-.503-1.423-.755-4.186-2.513-7.786-6.033-10.633-10.558-6.697-10.726-7.451-24.05-1.842-35.53l26.875-55.473 27.795 54.97c5.358 10.643 5.023 22.877-.418 33.352zm22.186-46.508l-31.479-62.345 25.869-52.121 30.977 61.255-25.367 53.211zm8.539-142.874l148.856-299.49c3.432-6.787 8.037-12.653 13.479-17.681 19.758 18.435 25.953 48.351 13.227 73.825l-144.836 304.099-30.726-60.753zm64.046-299.49c7.452-14.916 20.261-25.977 36.084-31.256 12.977-4.357 26.791-4.19 39.516.168-5.358 5.866-9.963 12.486-13.563 19.776l-140.399 282.479-28.968-57.317 107.33-213.85zm-283.646-31.34c15.824 5.279 28.633 16.34 36.084 31.424l108.502 211.671-28.214 58.323-142.325-281.474c-3.684-7.374-8.372-13.91-13.646-19.776 6.446-2.179 13.144-3.352 19.841-3.352 6.698 0 13.312 1.089 19.758 3.184zm-163.59 39.552c5.274-15.838 16.326-28.658 31.228-36.116 15.488-7.793 32.651-8.463 47.805-3.268-23.694 26.061-30.391 65.026-13.731 98.293l156.642 322.87-8.456 17.43c-6.279 13.072-10.214 26.731-12.391 40.474l-197.664-392.086c-7.451-14.916-8.707-31.759-3.433-47.597zm409.395 520.798c-18.921 30.838-49.479 48.519-83.721 48.519-33.907 0-64.214-17.346-83.219-47.681-3.097-4.944-5.609-10.055-7.869-15.251-.168-.67-.251-1.257-.503-1.927l-.921-1.844c-11.637-29.412-10.8-62.345 3.182-91.757l39.265 80.948c4.018 8.295 9.963 15.167 16.995 20.362l1.423 1.006c1.089.754 2.177 1.508 3.266 2.178 8.539 5.28 18.251 8.213 28.465 8.213 19.255 0 36.92-10.14 47.386-27.151 1.925-3.1 3.432-6.368 4.772-9.72l36.669-77.009c17.414 35.781 15.656 77.26-5.19 111.114zm234.167-473.117l-193.563 391.834c-2.26-14.58-6.53-28.91-13.395-42.569l-8.289-16.424 153.209-321.613c16.661-33.351 10.047-72.316-13.646-98.461l.251-.084c15.823-5.279 32.735-4.022 47.637 3.436 30.726 15.502 43.2 53.043 27.796 83.881z" fill="url(#a)"/><g filter="url(#b)"><g filter="url(#c)" fill="#2B2B2B"><path d="M262.742 337.334c0 3.899-3.09 6.641-7.539 6.641h-10.203v-22.608h8.124c4.236 0 7.259 2.573 7.259 6.303 0 1.675-.629 3.046-1.697 4.079 2.495.888 4.056 2.809 4.056 5.585zm-13.225-11.99v5.169h3.225c1.944 0 2.989-1.067 2.989-2.607 0-1.573-1.045-2.573-2.989-2.573h-3.225v.011zm8.607 11.821c0-1.753-1.213-2.843-3.258-2.843h-5.349v5.686h5.349c2.045 0 3.258-1.067 3.258-2.843zM283.193 341.041h-9.382l-1.281 2.944h-5.034l10.247-23.024h1.562l10.214 23.024h-5.034l-1.292-2.944zm-4.686-11.45l-3.056 7.64h6.113l-3.057-7.64zM294.26 332.67c0-6.641 5.383-11.72 12.226-11.72 4.416 0 8.09 2.158 10.112 5.618l-3.539 2.461c-1.528-2.393-3.686-3.798-6.562-3.798-4.27 0-7.394 3.079-7.394 7.473 0 4.348 3.124 7.393 7.394 7.393 2.888 0 5.034-1.404 6.562-3.798l3.539 2.461c-1.977 3.461-5.696 5.618-10.146 5.618-6.809.012-12.192-5.056-12.192-11.708zM343.712 320.961v23.024h-4.686v-14.012l-13.439 14.427h-1.528v-23.023h4.686v13.877l13.405-14.282h1.562v-.011zM398.839 320.961v23.024h-4.685v-14.012l-13.439 14.427h-1.528v-23.023h4.685v13.877l13.405-14.282h1.562v-.011zM406.233 332.67c0-6.641 5.382-11.72 12.225-11.72 4.416 0 8.091 2.158 10.113 5.618l-3.539 2.461c-1.529-2.393-3.686-3.798-6.563-3.798-4.269 0-7.393 3.079-7.393 7.473 0 4.348 3.124 7.393 7.393 7.393 2.888 0 5.034-1.404 6.563-3.798l3.539 2.461c-1.977 3.461-5.697 5.618-10.146 5.618-6.81.012-12.192-5.056-12.192-11.708zM449.528 341.041h-9.383l-1.281 2.944h-5.034l10.248-23.024h1.562l10.214 23.024h-5.034l-1.292-2.944zm-4.686-11.45l-3.056 7.64h6.112l-3.056-7.64zM362.218 320.961h-1.562l-10.236 23.024h5.034l5.966-14.394 5.978 14.394h5.034l-10.214-23.024z"/></g><path d="M334.656 196.418l14.729 29.459c.361.722 1.386.74 1.772.031l14.222-26.072c.075-.138.182-.256.311-.345l7.621-5.24c.204-.14.453-.199.698-.167l6.94.926c.199.026.401-.008.58-.097l1.547-.774c.139-.069.292-.106.448-.106h7.84c.352 0 .677.185.858.486l5.529 9.216c.175.291.19.651.041.955l-27.215 55.437-9.009 15.014c-.093.156-.227.283-.386.368l-7.056 3.763c-.21.112-.454.146-.687.094l-8.473-1.883c-.206-.046-.393-.156-.533-.314l-7.324-8.302-.145-.214-23.837-47.674-6.987-16.469c-.085-.2-.102-.422-.05-.633l1.829-7.314c.078-.311.301-.567.599-.686l6.734-2.694c.265-.106.563-.093.819.034l5.18 2.591c.321.16.703.136 1.002-.063l3.666-2.444c.268-.179.605-.217.906-.105l7.288 2.733c.236.089.43.264.543.489z" fill="#fff"/><path d="M391.019 193.247c-2.809-1.405-6.012-1.629-8.99-.64-.696.236-1.348.528-1.977.876l-.405-.225c-2.809-1.404-6.011-1.64-8.989-.64-2.989.989-5.405 3.09-6.809 5.899l-13.439 26.709-13.698-26.709c-1.404-2.809-3.831-4.91-6.809-5.899-2.989-.989-6.18-.764-8.989.64l-.405.236c-3.281-1.809-7.371-2.034-10.966-.236-5.81 2.911-8.169 10.001-5.259 15.81l30.777 60.936c.404 1 .865 1.977 1.449 2.899 3.135 5.011 8.394 8 14.057 8 5.731 0 11.012-3.034 14.147-8.124.472-.775.876-1.573 1.225-2.382l.112-.168 30.226-61.161c2.911-5.82.551-12.911-5.258-15.821zm-50.565 59.082l4.057-8.383 3.539 7.001-4.135 8.539-3.461-7.157zm-19.967-54.666c.719.663 1.337 1.461 1.798 2.382l20.293 40.07-4.023 8.303-19.866-40.889c-1.697-3.394-.854-7.405 1.798-9.866zm29.822 34.316l4.168 8.237-3.977 7.989-4.113-8.124 3.922-8.102zm3.854 33.62c-.146.315-.337.584-.551.832l-.112.146c-.742.82-1.787 1.292-2.955 1.303-.495.011-.955-.079-1.405-.236l-.393-.168-.191-.102c-.562-.337-1.045-.809-1.427-1.415-.899-1.439-1-3.225-.247-4.765l3.606-7.438 3.731 7.371c.719 1.427.674 3.068-.056 4.472zm2.978-6.236l-4.225-8.36 3.472-6.989 4.157 8.214-3.404 7.135zm1.146-19.158l19.978-40.16c.461-.91 1.079-1.697 1.809-2.371 2.652 2.472 3.484 6.484 1.776 9.9l-19.44 40.777-4.123-8.146zm8.596-40.16c1-2 2.719-3.483 4.843-4.191 1.741-.584 3.595-.562 5.303.022-.719.787-1.337 1.675-1.82 2.652l-18.844 37.879-3.888-7.686 14.406-28.676zm-38.07-4.202c2.124.708 3.843 2.191 4.843 4.213l14.563 28.384-3.787 7.821-19.102-37.744c-.495-.989-1.124-1.865-1.832-2.652.866-.292 1.764-.449 2.663-.449.899 0 1.787.146 2.652.427zm-21.956 5.303c.708-2.123 2.191-3.843 4.191-4.843 2.079-1.045 4.382-1.134 6.416-.438-3.18 3.495-4.079 8.72-1.842 13.181l21.023 43.294-1.135 2.337c-.843 1.753-1.371 3.585-1.663 5.427l-26.529-52.575c-1-2-1.169-4.259-.461-6.383zm54.947 69.835c-2.54 4.135-6.641 6.506-11.237 6.506-4.551 0-8.618-2.326-11.169-6.393-.416-.663-.753-1.349-1.056-2.045l-.068-.259-.123-.247c-1.562-3.944-1.45-8.36.427-12.304l5.27 10.855c.539 1.112 1.337 2.033 2.281 2.73l.191.135.438.292c1.146.708 2.45 1.101 3.82 1.101 2.585 0 4.956-1.359 6.36-3.64.259-.416.461-.854.641-1.304l4.921-10.326c2.338 4.798 2.102 10.36-.696 14.899zm31.428-63.441l-25.979 52.542c-.303-1.955-.876-3.877-1.797-5.708l-1.113-2.203 20.563-43.125c2.236-4.473 1.348-9.698-1.832-13.203l.034-.012c2.124-.707 4.394-.539 6.394.461 4.124 2.079 5.798 7.113 3.73 11.248z" fill="#1A1618"/></g><defs><filter id="b" x="195" y="162" width="310.854" height="252.4" filterUnits="userSpaceOnUse" color-interpolation-filters="sRGB"><feFlood flood-opacity="0" result="BackgroundImageFix"/><feColorMatrix in="SourceAlpha" values="0 0 0 0 0 0 0 0 0 0 0 0 0 0 0 0 0 0 127 0"/><feOffset dy="20"/><feGaussianBlur stdDeviation="25"/><feColorMatrix values="0 0 0 0 0.510069 0 0 0 0 0.529931 0 0 0 0 0.541667 0 0 0 0.5 0"/><feBlend in2="BackgroundImageFix" result="effect1_dropShadow"/><feBlend in="SourceGraphic" in2="effect1_dropShadow" result="shape"/></filter><filter id="c" x="245" y="320.95" width="210.854" height="24.45" filterUnits="userSpaceOnUse" color-interpolation-filters="sRGB"><feFlood flood-opacity="0" result="BackgroundImageFix"/><feColorMatrix in="SourceAlpha" values="0 0 0 0 0 0 0 0 0 0 0 0 0 0 0 0 0 0 127 0"/><feOffset dy="1"/><feColorMatrix values="0 0 0 0 1 0 0 0 0 1 0 0 0 0 1 0 0 0 1 0"/><feBlend in2="BackgroundImageFix" result="effect1_dropShadow"/><feBlend in="SourceGraphic" in2="effect1_dropShadow" result="shape"/></filter><radialGradient id="a" cx="0" cy="0" r="1" gradientUnits="userSpaceOnUse" gradientTransform="matrix(-432.968 -503.358 417.076 -358.751 450.56 503.277)"><stop stop-color="#FBF9F8" stop-opacity=".46"/><stop offset="1" stop-color="#FBF9F8"/></radialGradient></defs></svg>